<svg xmlns="http://www.w3.org/2000/svg" viewBox="0 0 512 512">
  <!-- wA2: portal frame, dim field, the symbol you jumped to sitting inside -->
  <rect width="512" height="512" rx="116" fill="#1c2433"/>
  <rect x="178" y="153" width="156" height="206" fill="#31456b"/>
  <g fill="#3a4f75">
    <rect x="134" y="109" width="44" height="44" rx="8"/>
    <rect x="134" y="159" width="44" height="44" rx="8"/>
    <rect x="134" y="209" width="44" height="44" rx="8"/>
    <rect x="134" y="259" width="44" height="44" rx="8"/>
    <rect x="134" y="309" width="44" height="44" rx="8"/>
    <rect x="134" y="359" width="44" height="44" rx="8"/>
    <rect x="334" y="109" width="44" height="44" rx="8"/>
    <rect x="334" y="159" width="44" height="44" rx="8"/>
    <rect x="334" y="209" width="44" height="44" rx="8"/>
    <rect x="334" y="259" width="44" height="44" rx="8"/>
    <rect x="334" y="309" width="44" height="44" rx="8"/>
    <rect x="334" y="359" width="44" height="44" rx="8"/>
    <rect x="184" y="109" width="44" height="44" rx="8"/>
    <rect x="234" y="109" width="44" height="44" rx="8"/>
    <rect x="284" y="109" width="44" height="44" rx="8"/>
    <rect x="184" y="359" width="44" height="44" rx="8"/>
    <rect x="234" y="359" width="44" height="44" rx="8"/>
    <rect x="284" y="359" width="44" height="44" rx="8"/>
  </g>
  <rect x="212" y="212" width="88" height="88" rx="16" fill="#3CEC85"/>
</svg>
